<?xml version="1.0" encoding="UTF-8"?>
<svg id="Layer_2" data-name="Layer 2" xmlns="http://www.w3.org/2000/svg" viewBox="0 0 92.58 108.63">
  <defs>
    <style>
      .cls-1 {
        fill: #000;
      }

      .cls-1, .cls-2 {
        stroke-width: 0px;
      }

      .cls-2 {
        fill: #fdd134;
      }
    </style>
  </defs>
  <g id="Vector_layer" data-name="Vector layer">
    <g>
      <path class="cls-1" d="M6.39,63.89C.04,60.73-2.67,51.47,3.4,46.66c5.34-4,13.45-2.23,18.4-7.09,8.25-9.22,9.03-22.09,13.7-32.99,1.86-4,5.72-7.41,10.39-6.39,9.02,2.07,14.07,21.3,16.16,29.36,2.53,6.66,9.65,10.17,15.88,12.71,3.55,1.19,7.67,1.58,10.43,4.34,3.13,3.3,6.21,9.6,2.55,13.49-1.85,1.81-4.65-1.02-2.84-2.85,0,0,0,0,0,0,.21-6.46-5.01-8.98-10.58-9.77-6.56-2.09-13.1-5.56-17.1-11.3-3.58-5.51-3.99-12.33-6.29-18.38C47.76-.33,40.99-.16,36.38,18.51c-4.01,11.1-7.26,26-20.56,28.93-9.41,1.99-15.34,6.33-5.99,14.32,2.23,2.49-1.47,3.67-3.44,2.13Z"/>
      <path class="cls-1" d="M42.43,108.17c-7.42-4.56-5.31-19.58-11.19-26.86-3.93-5.77-8.01-12.07-14.95-14.41-3.47-1.49-8.56-.63-10.92-3.95-.71-1.9,1.34-3.05,3.01-2.76,5.58.53,11.47,1.74,15.93,5.32,5.93,5.27,10.65,12.18,13.55,19.57,1.57,3.76,2.54,7.7,3.43,11.67.89,2.67,1.26,8.49,5.31,6.79,7.09-14.17,8.51-31.5,24.78-38.8,6.99-3.26,13.64-2.39,16.8-10.71.94-1.76,3.83-1.35,4.27.6.16,2.52-2.06,4.73-3.13,6.92-3.44,4.52-9.9,4.82-14.76,7.06-5.45,2.8-10.32,6.69-13.22,12.07-2.53,4.26-4.07,9.12-5.76,13.73-2.12,6.11-4.5,16.5-13.14,13.76Z"/>
      <path class="cls-2" d="M77.49,47.47c4.81.68,9.35,2.65,10.37,7.33-3.26,7.51-9.71,6.79-16.49,9.95-16.27,7.3-17.69,24.63-24.78,38.8-4.05,1.7-4.43-4.11-5.31-6.79-.89-3.97-1.86-7.91-3.43-11.67-2.89-7.39-7.61-14.3-13.55-19.57-4.47-3.59-10.35-4.79-15.93-5.32-.08-.01-.17-.03-.26-.04-6.8-6.98-1.06-10.87,7.7-12.73,13.3-2.93,16.55-17.83,20.56-28.93C40.99-.16,47.76-.33,54.1,17.78c2.29,6.05,2.71,12.87,6.29,18.38,4,5.74,10.54,9.22,17.1,11.3Z"/>
    </g>
  </g>
</svg>